<svg xmlns="http://www.w3.org/2000/svg" width="200" height="200" viewBox="0 0 200 200">
  <circle cx="100" cy="100" r="96" fill="hsl(85, 45%, 90%)"/>
  <g transform="translate(100, 100) scale(3.5) translate(-12, -12)" fill="none" stroke="hsl(85, 45%, 25%)" stroke-width="2" stroke-linecap="round" stroke-linejoin="round">
    <path d="M11 20A7 7 0 0 1 9.137 3.954A2 2 0 0 1 12 2h0c6.627 0 12 5.373 12 12v0a2 2 0 0 1-1.954 2.863A7 7 0 0 1 11 20z"/>
    <path d="M2 21c0-3 1.85-5.36 5.08-6.756C10.32 12.848 12.5 11.52 14 10"/>
  </g>
</svg>
